PathFileType	4	(X/Y/Z)	s08c0402.trc
DataRate	CameraRate	NumFrames	NumMarkers	Units	OrigDataRate	OrigDataStartFrame	OrigNumFrames
200	200	4	50	mm	200	1000	2000
Frame#	Time	racr			lacr			c7			jug			rlel			rdr			llel			ldr			s2			lic			ric			lasi			rasi			rpsi			lpsi			rgt			lgt			rth1			rth2			rth3			rth4			rlfc			rmfc			rsh1			rsh2			rsh3			rsh4			rlmal			rmmal			rcal			rtoe			rmt5			lth1			lth2			lth4			lth3			llfc			lmfc			llmal			lmmal			lcal			lmt5			lsh1			lsh2			lsh3			lsh4			ltoe			SBIKE			LBIKE			RBIKE			
		X1	Y1	Z1	X2	Y2	Z2	X3	Y3	Z3	X4	Y4	Z4	X5	Y5	Z5	X6	Y6	Z6	X7	Y7	Z7	X8	Y8	Z8	X9	Y9	Z9	X10	Y10	Z10	X11	Y11	Z11	X12	Y12	Z12	X13	Y13	Z13	X14	Y14	Z14	X15	Y15	Z15	X16	Y16	Z16	X17	Y17	Z17	X18	Y18	Z18	X19	Y19	Z19	X20	Y20	Z20	X21	Y21	Z21	X22	Y22	Z22	X23	Y23	Z23	X24	Y24	Z24	X25	Y25	Z25	X26	Y26	Z26	X27	Y27	Z27	X28	Y28	Z28	X29	Y29	Z29	X30	Y30	Z30	X31	Y31	Z31	X32	Y32	Z32	X33	Y33	Z33	X34	Y34	Z34	X35	Y35	Z35	X36	Y36	Z36	X37	Y37	Z37	X38	Y38	Z38	X39	Y39	Z39	X40	Y40	Z40	X41	Y41	Z41	X42	Y42	Z42	X43	Y43	Z43	X44	Y44	Z44	X45	Y45	Z45	X46	Y46	Z46	X47	Y47	Z47	X48	Y48	Z48	X49	Y49	Z49	X50	Y50	Z50	
1000	5.0000	877.385216	1357.632175	-50.485149	797.453917	1390.702121	-367.678269	831.560943	1432.577403	-187.030028	777.546993	1284.015168	-205.001149	712.675203	1165.025983	103.275289	781.273313	939.744657	-55.854010	681.875439	1175.406540	-515.518355	782.858944	932.606391	-452.134986	258.017608	1261.731543	-228.729428	430.106727	1230.192869	-363.751086	398.119938	1260.849022	-56.966893	431.294150	1169.745093	-331.881547	421.399786	1206.610253	-86.476362	288.943014	1301.715279	-183.499396	298.223665	1299.278759	-275.927257	335.664670	1161.028940	-24.684028	324.357456	1117.205128	-397.517290	454.871061	1034.591597	-21.955709	531.510832	988.213862	-27.260310	573.408223	913.059770	-35.407213	557.866128	1014.431992	-34.598072	642.541827	822.229773	-57.746676	627.900576	819.787841	-172.895142	539.700261	746.902242	-31.463476	494.368681	670.730120	-50.461861	419.305193	629.236245	-56.515305	517.219024	654.727429	-81.709268	326.848828	547.905405	-69.198279	350.253714	562.064431	-156.286538	238.176428	547.160660	-113.424448	514.609628	439.241434	-108.234974	421.187234	439.542278	-41.616545	346.493164	986.290832	-414.814482	376.901645	904.815141	-418.131165	412.534942	907.865384	-411.655649	361.698986	816.857441	-419.068261	350.161237	684.407802	-407.075081	349.789135	654.677915	-304.838288	123.023516	331.261279	-405.422911	163.432563	329.673321	-324.106741	68.032381	350.333336	-363.429708	186.052918	169.963549	-420.337116	273.099084	577.331289	-432.957375	248.809015	496.163422	-417.407856	186.347681	434.084248	-414.977999	273.494666	485.026742	-388.019346	268.934382	142.642657	-353.284434	-145.544522	939.162307	-227.363102	10.713019	80.329865	-426.960804	10.699554	80.310655	-28.364176	
1001	5.0050	877.528363	1353.540607	-50.299225	797.291234	1388.533639	-366.005942	832.230387	1430.095477	-186.079418	776.289677	1282.283197	-204.479985	711.189580	1163.604026	105.291695	781.250426	940.011422	-55.381069	680.557095	1174.922760	-514.495052	783.033267	932.807903	-452.075189	258.052429	1264.577300	-228.498950	429.718965	1233.229278	-364.285224	397.683553	1261.032495	-57.029307	430.917902	1172.611107	-332.639154	419.448876	1207.861850	-85.937895	289.073652	1304.561086	-182.501406	298.529475	1302.204345	-275.047332	333.683607	1162.077333	-25.628500	324.859581	1119.924670	-398.361171	451.132066	1033.113768	-23.072863	526.594728	985.938592	-27.122959	566.530890	909.796864	-35.153835	553.259681	1011.611085	-33.921504	634.960399	817.863215	-57.207218	619.534220	815.392936	-171.383545	533.697643	739.238164	-31.140099	490.621513	661.833176	-51.140142	416.906626	618.118555	-57.610398	514.037682	646.796634	-82.403894	327.528097	535.537482	-70.373532	350.564127	550.025032	-157.533338	239.190431	530.465853	-115.116281	520.582711	437.078291	-107.150341	426.497259	432.164281	-41.620333	351.065317	987.971864	-415.076764	383.680495	907.380414	-418.765870	419.232453	911.279820	-411.998633	370.802181	818.867236	-419.796467	361.486630	686.628423	-408.608245	360.199339	657.087227	-305.730874	122.214064	340.562046	-406.574224	161.752326	338.745984	-324.472282	66.997138	361.491030	-363.797508	178.969322	177.341123	-420.671876	281.737958	581.420249	-433.966511	254.213733	501.331905	-417.880170	189.550257	441.605339	-415.830741	278.082345	489.607126	-388.069327	260.617369	147.089879	-352.987330	-145.410518	939.289004	-227.145629	10.717021	80.383281	-426.897265	10.712784	80.308559	-28.364026	
1002	5.0100	877.619271	1349.822793	-50.553376	796.949439	1386.535079	-364.971078	832.831593	1427.825863	-185.425395	775.076030	1280.740325	-204.195172	709.590559	1162.345251	107.380379	780.917626	939.962535	-55.068406	678.998533	1174.599091	-513.838759	783.754296	933.415389	-452.837247	258.010416	1267.344090	-228.067196	429.360175	1236.084741	-364.673239	397.253358	1260.978329	-56.950920	430.607880	1175.442553	-333.073975	417.583783	1208.989071	-85.360500	289.009698	1306.683523	-177.826793	298.878966	1304.866640	-273.928496	331.594164	1162.977228	-26.616626	325.757612	1122.319715	-399.183393	446.526942	1031.615984	-23.208355	520.721361	983.281342	-26.031661	559.668900	906.218600	-35.274310	548.329857	1008.456629	-33.119053	627.073233	813.043667	-56.422804	610.607307	811.180687	-169.874324	527.303631	731.004337	-31.483926	486.799736	652.738374	-52.028989	414.686678	606.503366	-58.993144	510.785472	638.559805	-83.223827	328.556499	522.822030	-71.779359	351.907182	537.811397	-158.540726	240.333340	513.919019	-116.755687	526.000925	433.655598	-105.262356	431.392184	424.365365	-41.091808	355.925351	989.748393	-415.122679	390.915210	909.993256	-418.904565	426.198265	914.912933	-411.717885	380.731491	821.367294	-420.534200	373.585961	688.954805	-409.842856	370.676786	659.696111	-306.481116	122.612680	349.892431	-407.883281	155.829463	350.362349	-325.500162	67.733629	373.168835	-364.443282	172.442577	184.750141	-420.811836	291.194592	585.600369	-435.097119	260.552827	506.584159	-418.224329	193.792532	449.265369	-416.681066	283.587578	494.444153	-388.013974	252.692616	151.417667	-352.943753	-145.190425	939.397189	-226.879981	10.755514	80.496334	-426.879237	10.667852	80.149051	-28.521797	
1003	5.0150	877.593721	1346.515774	-51.092068	796.609103	1384.748745	-364.441771	833.220718	1425.743064	-185.229031	774.084351	1279.222067	-204.277249	708.475773	1160.959728	109.077699	780.254232	939.571814	-54.828206	677.354205	1174.413812	-513.586381	783.843744	933.952301	-453.476151	257.931765	1269.822083	-227.758223	429.046087	1238.780407	-364.999555	396.828264	1260.665247	-56.760451	430.411343	1177.925562	-333.201328	415.822725	1209.959871	-84.763132	289.050707	1308.924590	-176.829194	299.322048	1307.440720	-272.842755	329.140012	1163.164949	-27.943936	327.116565	1124.482038	-400.036482	441.675744	1030.039716	-23.368252	515.144329	980.259444	-26.055263	552.710579	902.669146	-35.732078	543.123959	1005.090467	-32.195477	619.070859	807.950607	-55.696009	602.047052	807.167491	-168.631882	520.515561	723.060007	-31.558395	483.377732	643.362282	-53.115732	412.594733	594.776478	-60.326305	507.569680	630.331738	-84.059077	329.676560	510.103426	-72.664392	353.522600	525.398732	-159.635010	242.709475	497.746395	-118.838425	530.981468	429.167259	-104.037177	436.307244	415.902199	-40.732556	361.128685	991.668649	-414.963471	398.410241	912.900598	-418.605314	433.379883	918.700286	-410.661795	390.724490	824.151246	-421.426156	385.342505	691.406768	-410.449336	381.144402	662.502203	-306.312301	124.336278	359.151623	-409.145058	157.216181	358.854268	-326.371335	70.113285	385.038308	-365.321727	166.675900	192.089913	-420.767708	301.116312	589.381404	-435.456557	267.593744	511.971469	-418.585667	199.011073	456.831420	-417.483003	289.626723	499.364043	-387.760988	245.103139	155.666429	-353.412639	-144.913192	939.530004	-226.635984	10.808669	80.600398	-426.874687	10.731323	80.349300	-28.356133	
